<svg xmlns="http://www.w3.org/2000/svg" viewBox="0 0 32 32">
  <path fill="#ffffff" d="M32 24.795c-1.164.296-1.884.013-2.53-.957l-4.594-6.356-.664-.88-5.365 7.257c-.613.873-1.256 1.253-2.4.944l6.87-9.222-6.396-8.33c1.1-.214 1.86-.105 2.535.88l4.765 6.435 4.8-6.4c.615-.873 1.276-1.205 2.38-.883l-2.48 3.288-3.36 4.375c-.4.5-.345.842.023 1.325L32 24.795zM.008 15.427l.975-5.873C2.774 5.857 4.78 5.563 7.45 5.973c1.135.173 2.57.472 3.373.981.8.507 1.526 1.352 1.41 3.102-.12 1.746-.91 3.155-1.954 3.93-.96.72-2.266 1.06-3.163 1.087-.9.028-1.53-.124-1.53-.124v3.307c0 .305-.19.605-.555.67l-3.356.55c-.425.07-.808-.17-.808-.5V5.482c0-.147.15-.27.335-.27h1.14c.183 0 .333.123.333.27v8.887c0 .195.28.27.43.27.415-.024.98-.004 1.55-.18.52-.16 1.266-.44 1.7-1.214.532-.937.598-2.145.134-2.85-.288-.435-.715-.685-1.18-.824-.465-.142-1.015-.18-1.33-.18-.313 0-.28.267-.28.267v8.837c0 .304-.344.55-.75.618l-2.112.343c-.405.065-.735-.15-.735-.48z"/>
</svg>
