<svg xmlns="http://www.w3.org/2000/svg" viewBox="0 0 32 32">
  <path d="M16.62 30l-.751-.249s.1-3.8-1.275-4.067c-.9-1.048.133-44.741 3.423-.149a2.712 2.712 0 00-1.371 1.282A14.087 14.087 0 0116.62 30z" fill="#599636"/>
  <path d="M17.026 26.329a13.327 13.327 0 00-5.235-8.6c-.1-.083-.2-.16-.3-.238l.009-.258.052-.036a7.151 7.151 0 001.262-4.458 10.627 10.627 0 00-1.568-5.4s-.787.782-1.891 2.044a9.661 9.661 0 00-1.594-3.259 10.378 10.378 0 00-1.112 6.89 9.839 9.839 0 001.9 4.742 8.592 8.592 0 00-3.293 6.918 9.2 9.2 0 00.3 2.621h.255a6.5 6.5 0 003.282-8.464 6.468 6.468 0 00-.385-.873 7.571 7.571 0 012.708 5.371c.116 2.3-.6 3.744-.6 3.744a3.211 3.211 0 01-2.908 1.984c.12.968 1.523 1.1 2.015 1.129a6.932 6.932 0 007.113-3.268z" fill="#6cac48"/>
  <path d="M11.791 17.729a7.571 7.571 0 012.708 5.371c.116 2.3-.6 3.744-.6 3.744a3.211 3.211 0 01-2.908 1.984c.12.968 1.523 1.1 2.015 1.129a6.932 6.932 0 007.113-3.268V26.3a13.327 13.327 0 00-5.235-8.6c-.1-.083-.2-.16-.3-.238l.009-.258.052-.036a7.151 7.151 0 001.262-4.458 10.627 10.627 0 00-1.568-5.4s-.787.782-1.891 2.044a9.661 9.661 0 00-1.594-3.259 10.378 10.378 0 00-1.112 6.89 9.839 9.839 0 001.9 4.742 8.592 8.592 0 00-3.293 6.918 9.2 9.2 0 00.3 2.621h.255a6.5 6.5 0 003.282-8.464 6.468 6.468 0 00-.385-.873z" fill="#4f8c3d"/>
</svg>
