<svg xmlns="http://www.w3.org/2000/svg" viewBox="0 0 32 32">
  <path d="M16 0C9.373 0 4 1.567 4 3.5v25C4 30.433 9.373 32 16 32c6.627 0 12-1.567 12-3.5v-25C28 1.567 22.627 0 16 0z" fill="#00618a"/>
  <path d="M16 0C9.373 0 4 1.567 4 3.5v25C4 30.433 9.373 32 16 32c6.627 0 12-1.567 12-3.5v-25C28 1.567 22.627 0 16 0zm0 1.75c5.523 0 10 1.343 10 3s-4.477 3-10 3-10-1.343-10-3 4.477-3 10-3zM6 7.773C7.345 8.87 11.267 9.75 16 9.75c4.733 0 8.655-.88 10-1.977v4.45C24.655 13.32 20.733 14.25 16 14.25c-4.733 0-8.655-.93-10-2.027v-4.45zm0 7c1.345 1.097 5.267 1.977 10 1.977 4.733 0 8.655-.88 10-1.977v4.45c-1.345 1.097-5.267 2.027-10 2.027-4.733 0-8.655-.93-10-2.027v-4.45zm0 7c1.345 1.097 5.267 1.977 10 1.977 4.733 0 8.655-.88 10-1.977v4.45c-1.345 1.097-5.267 2.027-10 2.027-4.733 0-8.655-.93-10-2.027v-4.45z" fill="#e48e00"/>
</svg>
